<svg viewBox="0 0 228.36000061035156 41" xmlns="http://www.w3.org/2000/svg" data-logo="logo">
        <g transform="translate(0, 0.5)
    rotate(0 20 20)" id="logogram"><path fill="#15E3FF" d="M13.0964 20.3536L17.6262 22.4473L17.046 27.6527L8.94876 36.8282C4.2486 33.8023 0.898178 28.8615 0 23.108L13.0964 20.3536Z"></path><path fill="#348DFC" d="M25.183 25.94L31.2414 36.3789C27.992 38.6605 24.0331 40 19.7612 40C18.3744 40 17.0206 39.8587 15.7133 39.59L17.046 27.6527L20.4765 23.7656L25.183 25.94Z"></path><path fill="#FD4873" d="M39.1022 14.881C39.5332 16.5143 39.763 18.2294 39.763 19.9982C39.763 24.1145 38.5192 27.9403 36.3874 31.1207L25.184 25.9405L22.5551 21.4123L25.8574 17.6692L39.1022 14.881Z"></path><path fill="#FFC700" d="M17.046 27.6524L17.0458 27.6527L17.1686 26.552L17.046 27.6524Z"></path><path fill="#FFC700" d="M20.132 0C26.1505 0.109415 31.5194 2.877 35.1148 7.17842L25.8561 17.6694L20.9792 18.6959L18.519 14.4574L20.132 0Z"></path><path fill="#00E7B9" d="M18.519 14.4574L17.9745 19.3269L13.0991 20.353L0.514709 14.5347C2.09964 8.94044 6.05794 4.3436 11.2327 1.9007L18.519 14.4574Z"></path></g>
        <g transform="translate(46, 6.359999999999999)" id="logotype"><path d="M28.96 3.43L36.00 3.43L36.00 28L30.01 28L30.01 13.26L24.52 28L19.69 28L14.16 13.23L14.16 28L8.17 28L8.17 3.43L15.24 3.43L22.14 20.44L28.96 3.43ZM43.31 6.44Q41.73 6.44 40.74 5.51Q39.74 4.58 39.74 3.22L39.74 3.22Q39.74 1.82 40.74 0.89Q41.73-0.04 43.31-0.04L43.31-0.04Q44.85-0.04 45.85 0.89Q46.85 1.82 46.85 3.22L46.85 3.22Q46.85 4.58 45.85 5.51Q44.85 6.44 43.31 6.44L43.31 6.44ZM40.30 8.47L46.29 8.47L46.29 28L40.30 28L40.30 8.47ZM62.53 8.26Q65.96 8.26 68.00 10.48Q70.05 12.70 70.05 16.59L70.05 16.59L70.05 28L64.10 28L64.10 17.39Q64.10 15.43 63.09 14.35Q62.07 13.26 60.36 13.26L60.36 13.26Q58.64 13.26 57.63 14.35Q56.61 15.43 56.61 17.39L56.61 17.39L56.61 28L50.63 28L50.63 8.47L56.61 8.47L56.61 11.06Q57.52 9.76 59.06 9.01Q60.60 8.26 62.53 8.26L62.53 8.26ZM77.23 6.44Q75.65 6.44 74.65 5.51Q73.66 4.58 73.66 3.22L73.66 3.22Q73.66 1.82 74.65 0.89Q75.65-0.04 77.23-0.04L77.23-0.04Q78.77-0.04 79.76 0.89Q80.76 1.82 80.76 3.22L80.76 3.22Q80.76 4.58 79.76 5.51Q78.77 6.44 77.23 6.44L77.23 6.44ZM74.22 8.47L80.20 8.47L80.20 28L74.22 28L74.22 8.47ZM83.21 3.43L102.22 3.43L102.22 8.22L95.71 8.22L95.71 28L89.72 28L89.72 8.22L83.21 8.22L83.21 3.43ZM111.21 11.72Q112.26 10.11 113.84 9.19Q115.41 8.26 117.34 8.26L117.34 8.26L117.34 14.59L115.69 14.59Q113.45 14.59 112.33 15.56Q111.21 16.52 111.21 18.93L111.21 18.93L111.21 28L105.23 28L105.23 8.47L111.21 8.47L111.21 11.72ZM138.62 17.92Q138.62 18.76 138.51 19.67L138.51 19.67L124.97 19.67Q125.11 21.49 126.14 22.45Q127.17 23.41 128.68 23.41L128.68 23.41Q130.92 23.41 131.79 21.52L131.79 21.52L138.16 21.52Q137.67 23.45 136.39 24.99Q135.12 26.53 133.19 27.41Q131.27 28.28 128.89 28.28L128.89 28.28Q126.02 28.28 123.78 27.05Q121.54 25.83 120.28 23.55Q119.02 21.28 119.02 18.23L119.02 18.23Q119.02 15.19 120.26 12.91Q121.50 10.64 123.74 9.41Q125.98 8.19 128.89 8.19L128.89 8.19Q131.72 8.19 133.93 9.38Q136.13 10.57 137.37 12.77Q138.62 14.98 138.62 17.92L138.62 17.92ZM125.00 16.34L132.49 16.34Q132.49 14.80 131.44 13.89Q130.39 12.98 128.82 12.98L128.82 12.98Q127.31 12.98 126.28 13.86Q125.25 14.73 125.00 16.34L125.00 16.34ZM141.77 2.10L147.75 2.10L147.75 28L141.77 28L141.77 2.10ZM152.09 2.10L158.08 2.10L158.08 28L152.09 28L152.09 2.10ZM171.31 28.28Q168.44 28.28 166.14 27.05Q163.85 25.83 162.54 23.55Q161.22 21.28 161.22 18.23L161.22 18.23Q161.22 15.22 162.56 12.93Q163.88 10.64 166.19 9.41Q168.50 8.19 171.38 8.19L171.38 8.19Q174.25 8.19 176.56 9.41Q178.87 10.64 180.19 12.93Q181.53 15.22 181.53 18.23L181.53 18.23Q181.53 21.24 180.18 23.54Q178.83 25.83 176.50 27.05Q174.18 28.28 171.31 28.28L171.31 28.28ZM171.31 23.10Q173.02 23.10 174.23 21.84Q175.44 20.58 175.44 18.23L175.44 18.23Q175.44 15.89 174.26 14.63Q173.09 13.37 171.38 13.37L171.38 13.37Q169.63 13.37 168.47 14.61Q167.31 15.85 167.31 18.23L167.31 18.23Q167.31 20.58 168.45 21.84Q169.59 23.10 171.31 23.10L171.31 23.10Z" fill="#ffc700"></path></g>
        
      </svg>