<?xml version="1.0" standalone="no"?>
<!DOCTYPE svg PUBLIC "-//W3C//DTD SVG 20010904//EN"
 "http://www.w3.org/TR/2001/REC-SVG-20010904/DTD/svg10.dtd">
<svg version="1.0" xmlns="http://www.w3.org/2000/svg"
 width="512.000000pt" height="512.000000pt" viewBox="0 0 512.000000 512.000000"
 preserveAspectRatio="xMidYMid meet">

<g transform="translate(0.000000,512.000000) scale(0.100000,-0.100000)"
fill="#000000" stroke="none">
<path d="M2440 4955 c-8 -2 -49 -9 -90 -15 -401 -65 -754 -357 -905 -747 -64
-168 -75 -250 -82 -605 l-6 -318 -64 0 c-308 0 -576 -214 -639 -509 -21 -100
-20 -1995 1 -2096 50 -237 252 -439 491 -490 103 -22 2724 -22 2829 0 181 38
349 168 433 335 74 148 72 107 72 1205 0 1083 1 1054 -64 1188 -110 227 -335
367 -589 367 l-64 0 -6 318 c-5 270 -9 332 -27 417 -99 464 -450 821 -910 926
-78 18 -338 35 -380 24z m275 -330 c273 -48 507 -226 630 -478 76 -158 86
-215 92 -569 l6 -308 -883 0 -883 0 6 308 c6 353 16 411 92 568 172 355 548
547 940 479z m1256 -1706 c68 -32 120 -82 157 -152 l27 -52 0 -1000 0 -1000
-27 -51 c-40 -76 -70 -107 -140 -145 l-63 -34 -1365 0 -1365 0 -63 34 c-69 37
-109 79 -144 151 l-23 45 0 1000 0 1000 27 52 c30 57 86 116 133 141 80 42 51
41 1450 39 l1340 -2 56 -26z"/>
<path d="M2463 2236 c-196 -64 -276 -312 -154 -478 l31 -42 0 -201 c0 -188 1
-204 23 -245 12 -25 37 -55 56 -67 30 -20 47 -23 141 -23 94 0 111 3 140 23
69 46 74 67 80 307 l5 215 32 43 c58 79 69 213 23 306 -27 58 -89 119 -147
147 -57 28 -169 35 -230 15z"/>
</g>
</svg>
